<svg width="38" height="49" viewBox="0 0 38 49" fill="none" xmlns="http://www.w3.org/2000/svg">
<path fill-rule="evenodd" clip-rule="evenodd" d="M11.875 0L17.8125 6.42623L24.0139 8.96994L27.1806 11.9153L38 14.3251L34.5694 21.0191C32.3264 21.3761 27.7083 22.224 27.1806 22.7596L25.5972 25.1694L27.4444 32.9344L22.6944 28.6503L25.7292 34.541L24.6736 43.2432L19.6597 36.0137L19.5278 49L10.2917 40.1639L8.97222 35.612L5.80556 39.6284L2.24306 28.7842L3.5625 23.8306L0 25.0355L4.22222 15.2623L0.923611 16.735L5.67361 9.50546L10.0278 7.09563L11.875 0ZM19.3958 10.041C20.5833 10.2195 23.0111 10.6836 23.2222 11.112L24.0139 12.7186C22.9583 12.9417 20.5569 12.7186 19.3958 10.041Z" fill="white"/>
<path d="M20.4514 6.96175L15.9653 0.401639L14.9097 2.54372L18.0764 6.02459L20.4514 6.96175Z" fill="white"/>
</svg>
